PathFileType	4	(X/Y/Z)	C:\Users\Biomechanik\SynologyDrive\AlexP\Athlete_03\Athlete_3_25_03_31\Deadlift_35kg_02\marker_experimental.trc
DataRate	CameraRate	NumFrames	NumMarkers	Units	OrigDataRate	OrigDataStartFrame	OrigNumFrames
200.000000	200.000000	4	55	mm	200.000000	1239	1983
Frame#	Time	BL			BR			GLAB			RFHD			LFHD			C7			T6			SPINMOL			SPINM2			SPINM3			T12			BELTOL			BELT2			BELT3			SACROL			SACR2			SACR3			LTHOL			LTH2			LTH3			LSHAOL			LSHA2			LSHA3			LHEE			LTOE			LM5			RTHOL			RTH2			RTH3			RSHAOL			RSHA2			RSHA3			RHEE			RTOE			RM5			STRN			XIPH			LACR			LUAOL			LUA2			LUA3			LLAOL			LLA2			LLA3			LWRR			LWRU			RACR			RUAOL			RUA2			RUA3			RLAOL			RLA2			RLA3			RWRR			RWRU			
		X1	Y1	Z1	X2	Y2	Z2	X3	Y3	Z3	X4	Y4	Z4	X5	Y5	Z5	X6	Y6	Z6	X7	Y7	Z7	X8	Y8	Z8	X9	Y9	Z9	X10	Y10	Z10	X11	Y11	Z11	X12	Y12	Z12	X13	Y13	Z13	X14	Y14	Z14	X15	Y15	Z15	X16	Y16	Z16	X17	Y17	Z17	X18	Y18	Z18	X19	Y19	Z19	X20	Y20	Z20	X21	Y21	Z21	X22	Y22	Z22	X23	Y23	Z23	X24	Y24	Z24	X25	Y25	Z25	X26	Y26	Z26	X27	Y27	Z27	X28	Y28	Z28	X29	Y29	Z29	X30	Y30	Z30	X31	Y31	Z31	X32	Y32	Z32	X33	Y33	Z33	X34	Y34	Z34	X35	Y35	Z35	X36	Y36	Z36	X37	Y37	Z37	X38	Y38	Z38	X39	Y39	Z39	X40	Y40	Z40	X41	Y41	Z41	X42	Y42	Z42	X43	Y43	Z43	X44	Y44	Z44	X45	Y45	Z45	X46	Y46	Z46	X47	Y47	Z47	X48	Y48	Z48	X49	Y49	Z49	X50	Y50	Z50	X51	Y51	Z51	X52	Y52	Z52	X53	Y53	Z53	X54	Y54	Z54	X55	Y55	Z55	

1240	6.195	2221.822998046875	657.8449096679689	354.0973815917973	201.1996765136718	647.6333618164062	341.4703369140626	1189.00146484375	1530.169067382812	493.0480651855471	1126.942260742188	1568.960205078125	454.7040710449221	1260.400024414062	1563.877807617188	455.8729248046877	1194.748291015625	1426.494384765625	226.4254608154299	1201.508422851562	1271.020263671875	145.0267181396487	1223.82177734375	1241.398315429688	134.2559967041018	1174.852661132812	1233.758911132812	126.2712097167971	1209.962890625	1178.609008789062	118.6146926879885	1208.410400390625	1124.9052734375	112.7481689453127	1224.98193359375	1105.642822265625	84.74398040771507	1174.650390625	1101.6435546875	84.43219757080099	1205.09228515625	1047.39599609375	59.69617080688499	1232.336059570312	965.9984741210939	31.43614768981956	1180.842163085938	964.1807250976564	33.06795883178733	1207.706420898438	906.7633056640626	13.76390266418479	1400.287109375	663.7213134765626	169.1764068603518	1378.44921875	596.7061157226564	132.3292999267581	1389.072265625	604.6466674804689	180.1601104736331	1398.724975585938	321.3445739746095	193.2031707763674	1388.741455078125	261.3857421875001	141.4653015136721	1392.333374023438	259.7342224121094	191.1994628906253	1304.5244140625	69.02599334716805	108.3278427124026	1308.865600585938	47.16214370727547	323.6186828613284	1411.70458984375	30.0808811187745	279.7330627441409	1016.901672363281	665.1024780273439	149.6467590332033	1002.323547363281	627.3276977539064	218.4194183349611	1022.938781738281	609.7533569335939	176.6529846191408	1009.4150390625	336.8262329101563	185.9753265380861	1012.301086425781	263.5836181640626	213.7138061523439	1021.403015136719	278.2753295898438	167.6898651123049	1124.3115234375	61.53117752075202	112.2660217285158	1103.683349609375	47.21673965454109	325.5420227050784	1006.206420898438	39.5160865783692	269.2539672851564	1196.485107421875	1306.233764648438	381.8229980468752	1198.016357421875	1162.78662109375	388.048767089844	1370.49609375	1359.227783203125	313.5354919433596	1457.918579101562	1202.478271484375	352.0698852539065	1477.159057617188	1139.65185546875	356.6865234375003	1432.771484375	1148.641723632812	380.6623535156253	1480.352905273438	935.9680786132814	376.471862792969	1503.476440429688	877.6747436523439	327.894226074219	1484.7626953125	874.4299926757814	374.5706176757815	1487.8828125	767.8669433593751	385.8558044433597	1415.990234375	758.3886718750001	351.596862792969	1028.494873046875	1352.278198242188	316.5164489746095	942.8746337890623	1198.381713867188	333.8883361816408	958.9110717773435	1139.855224609375	361.496063232422	921.9780273437498	1135.576538085938	326.2730712890627	922.4354248046874	920.3525390625	347.6894531250002	924.2252197265624	860.0382080078125	399.5760803222658	917.7075805664061	857.6119384765625	350.0850219726564	917.7040405273436	768.6483764648438	383.3838500976564	988.1973876953124	745.1423950195314	342.9021606445314	
1241	6.2	2221.8583984375	656.2032470703126	354.1895446777348	201.2309265136718	646.314697265625	341.5349731445313	1189.023803710938	1527.691162109375	495.0941467285159	1126.990478515625	1566.731079101562	456.9692993164065	1260.462524414062	1561.61376953125	458.1686096191409	1194.812744140625	1425.538696289062	227.9527435302737	1201.537353515625	1270.561401367188	145.6887817382815	1223.845947265625	1241.009887695312	134.7445068359377	1174.875244140625	1233.419189453125	126.7179183959963	1209.990112304688	1178.309936523438	118.7409133911135	1208.4248046875	1124.628295898438	112.5455856323244	1224.98828125	1105.420776367188	84.42083740234398	1174.669189453125	1101.416015625	84.1039276123049	1205.128173828125	1047.28076171875	59.09233856201194	1232.389892578125	965.7149047851564	30.44924163818382	1180.898803710938	963.9146118164064	32.076972961426	1207.73974609375	906.5154418945314	12.70838928222678	1400.45849609375	663.2141723632814	168.8561096191409	1378.722290039062	596.0175781250001	132.3215789794924	1389.262573242188	604.2238769531251	180.1302947998049	1398.9443359375	321.2216796875001	193.6784210205081	1388.957153320312	261.3348388671876	141.8567199707034	1392.5048828125	259.6119995117189	191.5900421142581	1304.5263671875	69.04862213134774	108.3394622802737	1308.848999023438	47.14966583251961	323.6194152832034	1411.695678710938	30.08542823791512	279.7341918945315	1016.855712890625	664.5092773437501	149.1986541748049	1002.207702636719	627.0512084960939	218.1559906005861	1022.861938476562	609.2904052734376	176.4820098876955	1009.254150390625	336.7159729003907	186.3292541503908	1012.222839355469	263.4547119140626	214.0123138427736	1021.263854980469	278.1811828613282	167.9644165039064	1124.325073242188	61.55064773559577	112.2822341918947	1103.687744140625	47.21323013305671	325.5464172363284	1006.209228515625	39.51095199584967	269.267303466797	1196.534423828125	1304.5009765625	382.7249450683596	1198.083862304688	1160.93798828125	388.139099121094	1370.49951171875	1357.78173828125	314.8033447265627	1457.8203125	1200.938110351562	352.8179321289065	1477.06103515625	1138.087036132812	357.3228454589847	1432.69677734375	1147.03173828125	381.296813964844	1480.344604492188	934.4205932617189	376.8280029296878	1503.496948242188	876.2004394531251	328.1736145019534	1484.748657226562	872.8480834960939	374.840759277344	1487.8935546875	766.3247680664064	385.9478454589847	1415.992797851562	756.8364868164064	351.6863098144534	1028.578002929688	1350.820556640625	317.7272033691408	943.0487670898435	1196.9462890625	334.6526489257814	959.056701660156	1138.390625	362.1317443847658	922.169494628906	1134.168579101562	326.934051513672	922.4992675781249	918.9196166992188	347.9935607910158	924.2986450195311	858.5523681640625	399.8217163085939	917.7564697265624	856.1810913085938	350.3123474121095	917.7646484374999	767.1844482421875	383.4909057617189	988.2475585937499	743.6889038085939	342.9936828613283	
1242	6.205	2221.895263671875	654.5512695312501	354.2882690429691	201.2648925781249	644.9906005859375	341.6044921875001	1189.044311523438	1525.201904296875	497.1148681640627	1127.038208007812	1564.486206054688	459.2063598632815	1260.526000976562	1559.333374023438	460.4371032714846	1194.87890625	1424.554321289062	229.4723205566409	1201.569580078125	1270.0771484375	146.3520507812502	1223.874145507812	1240.597290039062	135.2358703613284	1174.902465820312	1233.056396484375	127.1684036254885	1210.023681640625	1177.987182617188	118.8719635009768	1208.4443359375	1124.330200195312	112.3519287109377	1224.999267578125	1105.1796875	84.10610198974632	1174.69140625	1101.168701171875	83.78041076660178	1205.166015625	1047.147827148438	58.5005683898928	1232.448608398438	965.4223022460939	29.47101211547874	1180.95947265625	963.6436767578126	31.09447097778342	1207.774658203125	906.2620239257814	11.65422248840354	1400.628173828125	662.6989135742189	168.5349578857424	1378.989868164062	595.3199462890626	132.3191528320315	1389.450439453125	603.7936401367189	180.1053161621096	1399.164794921875	321.0972290039064	194.1567077636721	1389.1728515625	261.2827148437501	142.2507171630862	1392.679321289062	259.4886169433595	191.9826202392581	1304.528930664062	69.07106781005868	108.3508224487307	1308.8291015625	47.1357727050782	323.6208801269534	1411.686889648438	30.09056282043466	279.7352294921878	1016.810424804688	663.9110717773439	148.7417602539064	1002.086486816406	626.7777099609376	217.8814849853517	1022.782409667969	608.8257446289064	176.3047637939455	1009.091247558594	336.6043090820313	186.6762847900393	1012.138671875	263.3251037597657	214.3052062988283	1021.124694824219	278.0852661132813	168.2299652099611	1124.33984375	61.57059478759773	112.2991561889651	1103.691162109375	47.21010971069343	325.5506286621096	1006.211303710938	39.50564575195319	269.2804565429689	1196.583251953125	1302.747802734375	383.6205139160159	1198.15087890625	1159.076782226562	388.2297363281252	1370.50390625	1356.315551757812	316.062927246094	1457.728759765625	1199.383178710938	353.561462402344	1476.969482421875	1136.508911132812	357.9578857421878	1432.631591796875	1145.40966796875	381.9292297363284	1480.340698242188	932.8584594726564	377.1871337890628	1503.5234375	874.7100219726564	328.4570617675784	1484.7431640625	871.2538452148439	375.1159667968753	1487.910522460938	764.7682495117189	386.0491638183597	1415.994262695312	755.2699584960939	351.7880859375003	1028.674560546875	1349.337524414062	318.9286499023439	943.2196655273435	1195.497436523438	335.4100341796877	959.2017822265623	1136.910766601562	362.7608947753908	922.3563842773435	1132.747680664062	327.5916137695314	922.5592651367186	917.4713745117188	348.2983703613283	924.3666381835936	857.0537719726562	400.0673828125002	917.8018188476561	854.7357177734375	350.5425415039064	917.8259887695311	765.7084350585938	383.6050720214845	988.2958374023436	742.2236328125001	343.094696044922	
1243	6.21	2221.933837890625	652.8884277343751	354.3936767578129	201.3014373779296	643.6602172851562	341.6788635253907	1189.06298828125	1522.703369140625	499.110046386719	1127.08544921875	1562.226928710938	461.4146728515627	1260.589965820312	1557.038818359375	462.6780090332034	1194.947143554688	1423.542114257812	230.9839477539065	1201.605712890625	1269.568115234375	147.0157470703127	1223.9072265625	1240.161010742188	135.7294616699221	1174.935302734375	1232.671142578125	127.621765136719	1210.063720703125	1177.641723632812	119.0070266723635	1208.469360351562	1124.011108398438	112.1669998168948	1225.015625	1104.919677734375	83.80013275146507	1174.716430664062	1100.901245117188	83.46123504638693	1205.20703125	1046.996826171875	57.91982269287131	1232.511596679688	965.1220092773439	28.50244522094749	1181.023681640625	963.3682861328126	30.12081146240256	1207.8115234375	906.0039672851564	10.60155963897727	1400.796997070312	662.1779785156251	168.2124481201174	1379.25341796875	594.6157226562501	132.3199615478518	1389.637084960938	603.3566894531251	180.083190917969	1399.386474609375	320.9710998535157	194.6336822509768	1389.388427734375	261.2287597656251	142.6436614990237	1392.856689453125	259.3640747070314	192.3735656738284	1304.532592773438	69.09291076660165	108.3616104125979	1308.807006835938	47.1197814941407	323.6224060058596	1411.679077148438	30.0961456298829	279.7362060546878	1016.766723632812	663.3073120117189	148.2769622802736	1001.95849609375	626.5056152343751	217.5957489013674	1022.70068359375	608.3582153320314	176.1219177246096	1008.926696777344	336.4909667968751	187.0184631347658	1012.050231933594	263.1944274902344	214.5941467285158	1020.985656738281	277.9871826171876	168.4880371093752	1124.356079101562	61.59092712402351	112.3168258666994	1103.693725585938	47.20725631713874	325.5545959472659	1006.212951660156	39.50033187866217	269.2932739257814	1196.632202148438	1300.974731445312	384.5093383789065	1198.217529296875	1157.205810546875	388.321716308594	1370.509399414062	1354.828857421875	317.3143005371096	1457.643310546875	1197.81298828125	354.3018493652347	1476.884643554688	1134.917602539062	358.5930175781253	1432.57470703125	1143.77490234375	382.5604553222659	1480.340576171875	931.2813110351564	377.5499572753909	1503.555786132812	873.2032470703126	328.7454223632815	1484.746337890625	869.6476440429689	375.3968200683597	1487.933227539062	763.1966552734376	386.1609191894534	1415.994506835938	753.6891479492189	351.9030761718753	1028.786376953125	1347.830688476562	320.1199645996095	943.3879394531248	1194.035766601562	336.1603088378908	959.346496582031	1135.415893554688	363.3836059570314	922.5356445312498	1131.313842773438	328.2454528808595	922.6148681640624	916.0078125	348.6033325195314	924.4295654296874	855.5420532226562	400.3125915527345	917.8436889648436	853.275634765625	350.7752685546877	917.8865966796874	764.2207641601562	383.7259216308595	988.3425292968749	740.7467041015626	343.2050170898439	
